<svg id="Instagram" xmlns="http://www.w3.org/2000/svg" width="18" height="18" viewBox="0 0 18 18">
  <path id="Body" d="M12.638,0H5.362A5.368,5.368,0,0,0,0,5.362v7.275A5.368,5.368,0,0,0,5.362,18h7.275A5.368,5.368,0,0,0,18,12.638V5.362A5.368,5.368,0,0,0,12.638,0Zm3.552,12.638a3.552,3.552,0,0,1-3.552,3.551H5.362a3.552,3.552,0,0,1-3.551-3.551V5.362A3.551,3.551,0,0,1,5.362,1.811h7.275a3.551,3.551,0,0,1,3.551,3.551v7.275Z" fill="#2f2651"/>
  <path id="Lens" d="M137.5,133a4.5,4.5,0,1,0,4.5,4.5A4.5,4.5,0,0,0,137.5,133Zm0,7.245a2.748,2.748,0,1,1,2.748-2.748A2.748,2.748,0,0,1,137.5,140.245Z" transform="translate(-128.497 -128.497)" fill="#2f2651"/>
  <path id="Viewport" d="M1.156,0A1.156,1.156,0,1,1,0,1.156,1.156,1.156,0,0,1,1.156,0Z" transform="translate(12.484 3.247)" fill="#2f2651"/>
</svg>
