<svg xmlns="http://www.w3.org/2000/svg" width="21.439" height="21.438" viewBox="0 0 21.439 21.438">
  <path id="Icon_awesome-facebook-messenger" data-name="Icon awesome-facebook-messenger" d="M11.306.563C5.253.563.563,4.986.563,10.961a10.162,10.162,0,0,0,3.374,7.691c.361.325.287.513.348,2.517a.861.861,0,0,0,1.205.759c2.287-1.007,2.316-1.087,2.7-.981C14.82,22.77,22,18.53,22,10.961A10.317,10.317,0,0,0,11.306.563Zm6.451,8-3.155,5a1.615,1.615,0,0,1-2.33.429L9.76,12.11a.648.648,0,0,0-.778,0L5.595,14.679A.51.51,0,0,1,4.855,14l3.155-5a1.615,1.615,0,0,1,2.33-.429l2.51,1.878a.648.648,0,0,0,.778,0l3.389-2.567a.508.508,0,0,1,.739.675Z" transform="translate(-0.563 -0.563)"/>
</svg>
