<svg xmlns="http://www.w3.org/2000/svg" width="24.167" height="19.5" viewBox="0 0 24.167 19.5">
  <path id="Twitter" d="M40.021,21.4A7.674,7.674,0,0,1,37.1,22.411h0A4.717,4.717,0,0,0,33.725,21a4.624,4.624,0,0,0-4.676,4.569,4.471,4.471,0,0,0,.118,1.02h0a13.056,13.056,0,0,1-9.64-4.743,4.512,4.512,0,0,0,1.418,6.039,3.059,3.059,0,0,1-2.042-.517,4.42,4.42,0,0,0,3.607,4.467,3.784,3.784,0,0,1-1.947.145c.149,1.344,2.074,3.1,4.18,3.1A8.441,8.441,0,0,1,18,36.979,14.293,14.293,0,0,0,25.315,39,12.832,12.832,0,0,0,38.4,25.652c0-.008,0-.016,0-.025s0-.038,0-.058,0-.045,0-.067a7.967,7.967,0,0,0,2.267-2.34,8.337,8.337,0,0,1-2.593.719A4.873,4.873,0,0,0,40.021,21.4" transform="translate(-17.25 -20.25)" fill="rgba(255,255,255,0)" stroke="#2f2651" stroke-linecap="round" stroke-linejoin="round" stroke-width="1.5" fill-rule="evenodd"/>
</svg>
